<?xml version="1.0" standalone="no"?>
<!DOCTYPE svg PUBLIC "-//W3C//DTD SVG 20010904//EN"
 "http://www.w3.org/TR/2001/REC-SVG-20010904/DTD/svg10.dtd">
<svg version="1.0" xmlns="http://www.w3.org/2000/svg"
 width="512.000000pt" height="512.000000pt" viewBox="0 0 512.000000 512.000000"
 preserveAspectRatio="xMidYMid meet">
<metadata>
Created by potrace 1.11, written by Peter Selinger 2001-2013
</metadata>
<g transform="translate(0.000000,512.000000) scale(0.100000,-0.100000)"
fill="#000000" stroke="none">
<path d="M285 4828 c-3 -7 -4 -1032 -3 -2278 l3 -2265 668 -3 c483 -1 667 1
667 9 0 6 -162 574 -359 1263 -198 688 -376 1309 -396 1379 -20 71 -34 131
-31 134 3 3 190 58 416 123 226 65 414 120 417 124 3 3 0 53 -7 111 -7 58 -11
107 -9 109 2 2 243 36 534 77 l530 74 15 92 c8 50 17 94 20 96 3 3 145 -14
315 -39 171 -24 330 -44 355 -44 25 0 187 20 360 45 173 24 315 43 316 42 1
-1 8 -45 15 -97 l14 -95 335 -47 c184 -26 345 -47 358 -48 l22 0 -2 623 -3
622 -2273 3 c-1813 2 -2274 0 -2277 -10z"/>
<path d="M3170 3504 c-25 -31 -93 -103 -152 -160 -60 -57 -108 -105 -108 -107
0 -2 28 -53 63 -113 34 -60 80 -147 102 -192 22 -45 42 -81 45 -80 3 2 74 73
158 159 l152 156 -55 94 c-31 52 -79 140 -107 197 -28 56 -51 102 -52 102 0
-1 -21 -26 -46 -56z"/>
<path d="M2352 3374 c-39 -20 -70 -61 -84 -110 l-9 -35 -22 33 c-50 73 -145
100 -218 63 -67 -35 -90 -136 -49 -221 11 -23 86 -110 165 -193 79 -83 158
-174 174 -203 18 -32 32 -46 34 -38 3 8 10 35 17 60 14 52 49 126 139 293 57
106 64 127 69 190 5 78 -9 117 -55 151 -36 27 -118 32 -161 10z"/>
<path d="M4020 3328 c-55 -38 -74 -72 -74 -131 l1 -53 -46 23 c-51 26 -84 24
-140 -10 -60 -36 -90 -143 -57 -205 8 -15 28 -40 46 -57 29 -28 37 -30 105
-30 67 0 78 3 120 33 44 31 46 31 40 10 -12 -40 -59 -102 -103 -132 -37 -26
-53 -31 -115 -33 -39 -1 -73 -6 -75 -11 -1 -5 95 -37 215 -71 120 -34 226 -64
236 -67 37 -11 15 22 -33 48 -73 41 -104 93 -109 185 -4 80 12 120 24 63 9
-40 70 -109 112 -127 72 -30 147 -7 196 59 31 41 34 133 8 176 -30 46 -78 74
-123 70 -21 -2 -38 -2 -38 0 0 2 11 17 25 33 63 75 27 202 -68 238 -48 18
-111 13 -147 -11z"/>
<path d="M1398 2908 c-6 -66 -34 -134 -91 -217 -46 -67 -69 -137 -62 -183 14
-81 94 -133 168 -109 41 14 94 69 103 108 7 25 8 25 15 8 13 -34 10 -104 -7
-143 -20 -48 -56 -85 -105 -107 -38 -18 -52 -35 -26 -35 33 1 411 117 415 128
3 9 -15 12 -63 12 -75 0 -110 14 -149 61 -23 26 -56 90 -56 106 0 3 14 -7 30
-21 55 -46 147 -47 190 -1 21 22 22 29 15 101 -9 96 -19 107 -168 189 -80 43
-121 73 -156 112 l-48 54 -5 -63z"/>
</g>
</svg>
